<?xml version="1.0" encoding="UTF-8" standalone="no"?>
<svg
   width="30.857"
   height="36"
   fill="none"
   viewBox="0 0 30.857 36"
   version="1.1"
   id="svg5"
   sodipodi:docname="book-logo.svg"
   inkscape:version="1.4 (86a8ad7, 2024-10-11)"
   xmlns:inkscape="http://www.inkscape.org/namespaces/inkscape"
   xmlns:sodipodi="http://sodipodi.sourceforge.net/DTD/sodipodi-0.dtd"
   xmlns="http://www.w3.org/2000/svg"
   xmlns:svg="http://www.w3.org/2000/svg">
  <sodipodi:namedview
     id="namedview5"
     pagecolor="#ffffff"
     bordercolor="#000000"
     borderopacity="0.25"
     inkscape:showpageshadow="2"
     inkscape:pageopacity="0.0"
     inkscape:pagecheckerboard="0"
     inkscape:deskcolor="#d1d1d1"
     inkscape:zoom="4.7202073"
     inkscape:cx="56.883095"
     inkscape:cy="35.697585"
     inkscape:window-width="1920"
     inkscape:window-height="1129"
     inkscape:window-x="1912"
     inkscape:window-y="-7"
     inkscape:window-maximized="1"
     inkscape:current-layer="g4" />
  <g
     clip-path="url(#a)"
     id="g4">
    <path
       fill="#062630"
       fill-rule="evenodd"
       d="M 3.857,0 A 3.857,3.857 0 0 0 0,3.857 V 32.143 A 3.857,3.857 0 0 0 3.857,36 H 27 a 3.857,3.857 0 0 0 3.857,-3.857 V 3.857 A 3.857,3.857 0 0 0 27,0 Z M 2.571,3.857 c 0,-0.71 0.576,-1.286 1.286,-1.286 H 5.143 V 33.43 H 3.857 c -0.71,0 -1.286,-0.576 -1.286,-1.286 z m 16.208,9.71 a 1.286,1.286 0 1 1 2.3,1.15 l -3.858,7.715 a 1.286,1.286 0 1 1 -2.3,-1.15 l 3.858,-7.714 z m -4.691,0.631 a 1.286,1.286 0 0 1 0,1.818 L 12.104,18 l 1.984,1.984 a 1.286,1.286 0 0 1 -1.819,1.818 L 9.377,18.909 a 1.286,1.286 0 0 1 0,-1.818 l 2.892,-2.893 a 1.286,1.286 0 0 1 1.819,0 z m 7.824,1.818 a 1.286,1.286 0 0 1 1.819,-1.818 l 2.892,2.893 a 1.286,1.286 0 0 1 0,1.818 l -2.892,2.893 A 1.286,1.286 0 0 1 21.912,19.984 L 23.896,18 Z"
       clip-rule="evenodd"
       id="path1" />
    <path
       fill="#062630"
       d="m 7.429,12 h 22 v 12 h -22 z"
       id="path2" />
    <path
       stroke="#ff9a60"
       stroke-linecap="round"
       stroke-linejoin="round"
       stroke-width="1.422"
       d="M 14.683,12.695 11.948,9.948 m 8.504,8.513 -2.798,-2.798 m -1.593,0.725 v 5.844 m 2.103,2.105 a 2.105,2.105 0 1 1 -4.209,0.001 2.1050001,2.1050001 0 0 1 4.21,-0.001 z m 5.903,-4.417 a 2.1045001,2.1045001 0 1 1 -4.209,10e-4 2.1050001,2.1050001 0 0 1 4.21,-10e-4 z m -5.903,-5.636 a 2.105,2.105 0 1 1 -4.209,10e-4 2.1050001,2.1050001 0 0 1 4.21,-10e-4 z"
       id="path3" />
  </g>
  <defs
     id="defs5">
    <clipPath
       id="a">
      <path
         fill="#ffffff"
         d="M 0,0 H 192.857 V 36 H 0 Z"
         id="path5" />
    </clipPath>
  </defs>
</svg>
